<svg xmlns="http://www.w3.org/2000/svg" viewBox="0 0 27.91 18"><path d="M20.16.88C18.43.33 16.29 0 13.95 0S9.47.33 7.74.88C3.16 2.36 0 5.43 0 8.97 0 13.96 6.25 18 13.95 18s13.96-4.04 13.96-9.03c0-3.54-3.16-6.61-7.75-8.09m-6.21 13.23c-1.15 0-2.09-2.26-2.14-5.1.69.07 1.41.1 2.14.1s1.45-.03 2.15-.1c-.05 2.84-1 5.1-2.15 5.1m-2-7.33c.31-1.99 1.09-3.41 2-3.41s1.69 1.41 2 3.41c-.64.06-1.31.09-2 .09s-1.35-.03-2-.09m5.22-.15c-.47-3.13-1.73-5.38-3.22-5.38S11.2 3.5 10.73 6.63C7.9 6.19 5.91 5.18 5.91 4.01c0-1.58 3.6-2.86 8.04-2.86s8.04 1.28 8.04 2.86c0 1.18-1.98 2.18-4.82 2.62M2.04 8.64c0-1.53.59-2.96 1.61-4.19 0 .09-.02.17-.02.26 0 1.92 2.89 3.56 6.91 4.16v.44c0 3.58.99 6.6 2.36 7.65-6.09-.37-10.86-3.95-10.86-8.3m12.97 8.3c1.37-1.04 2.36-4.07 2.36-7.65v-.44c4.02-.6 6.91-2.24 6.91-4.16 0-.09 0-.17-.02-.26 1.03 1.23 1.61 2.66 1.61 4.19 0 4.36-4.77 7.93-10.86 8.3" style="fill:#fff"/></svg>