<?xml version="1.0" encoding="UTF-8"?><svg id="Camada_2" xmlns="http://www.w3.org/2000/svg" viewBox="0 0 27.91 18"><defs><style>.cls-1{fill:#fff;}</style></defs><g id="Camada_2-2"><g id="Camada_1-2"><path class="cls-1" d="M20.16,.88c-1.73-.55-3.87-.88-6.21-.88s-4.48,.33-6.21,.88C3.16,2.36,0,5.43,0,8.97c0,4.99,6.25,9.03,13.95,9.03s13.96-4.04,13.96-9.03c0-3.54-3.16-6.61-7.75-8.09m-6.21,13.23c-1.15,0-2.09-2.26-2.14-5.1,.69,.07,1.41,.1,2.14,.1s1.45-.03,2.15-.1c-.05,2.84-1,5.1-2.15,5.1m-2-7.33c.31-1.99,1.09-3.41,2-3.41s1.69,1.41,2,3.41c-.64,.06-1.31,.09-2,.09s-1.35-.03-2-.09m5.22-.15c-.47-3.13-1.73-5.38-3.22-5.38s-2.75,2.25-3.22,5.38c-2.83-.44-4.82-1.45-4.82-2.62,0-1.58,3.6-2.86,8.04-2.86s8.04,1.28,8.04,2.86c0,1.18-1.98,2.18-4.82,2.62M2.04,8.64c0-1.53,.59-2.96,1.61-4.19,0,.09-.02,.17-.02,.26,0,1.92,2.89,3.56,6.91,4.16v.44c0,3.58,.99,6.6,2.36,7.65-6.09-.37-10.86-3.95-10.86-8.3m12.97,8.3c1.37-1.04,2.36-4.07,2.36-7.65v-.44c4.02-.6,6.91-2.24,6.91-4.16,0-.09,0-.17-.02-.26,1.03,1.23,1.61,2.66,1.61,4.19,0,4.36-4.77,7.93-10.86,8.3"/></g></g></svg>