<svg width="64" height="42" fill="none" xmlns="http://www.w3.org/2000/svg"><path d="M46.23 2.512a51.33 51.33 0 0 0-28.46 0C7.238 5.876 0 12.862 0 20.934 0 32.291 14.326 41.5 32.002 41.5 49.675 41.5 64 32.291 64 20.934c0-8.072-7.238-15.056-17.77-18.422ZM32.003 32.658c-2.638 0-4.792-5.152-4.918-11.625 1.586.142 3.231.218 4.918.218 1.686 0 3.329-.076 4.914-.218-.127 6.473-2.28 11.625-4.914 11.625Zm-4.586-16.692c.72-4.544 2.5-7.762 4.585-7.762 2.086 0 3.865 3.218 4.583 7.762a51.438 51.438 0 0 1-9.168 0Zm11.97-.343c-1.07-7.131-3.972-12.244-7.385-12.244-3.412 0-6.317 5.113-7.387 12.244-6.5-1.008-11.043-3.302-11.043-5.975 0-3.6 8.252-6.52 18.43-6.52 10.18 0 18.432 2.92 18.432 6.52 0 2.673-4.544 4.967-11.044 5.975h-.002ZM4.673 20.182c0-3.481 1.349-6.744 3.703-9.551a4.338 4.338 0 0 0-.043.589c0 4.377 6.623 8.102 15.855 9.47a45.7 45.7 0 0 0-.012.997c0 8.143 2.274 15.04 5.417 17.419-13.966-.849-24.921-8.995-24.921-18.924h.001Zm29.74 18.924c3.142-2.378 5.415-9.275 5.415-17.419 0-.336-.003-.666-.011-.997 9.23-1.368 15.854-5.093 15.854-9.47 0-.197-.015-.394-.042-.59 2.353 2.808 3.702 6.07 3.702 9.552 0 9.929-10.954 18.075-24.918 18.924Z" fill="#000"/></svg>